<?xml version="1.0" encoding="iso-8859-1"?>
<!-- Generator: Adobe Illustrator 19.0.0, SVG Export Plug-In . SVG Version: 6.00 Build 0)  -->
<svg version="1.1" id="Layer_1" xmlns="http://www.w3.org/2000/svg" xmlns:xlink="http://www.w3.org/1999/xlink" x="0px" y="0px"
	 viewBox="0 0 240.934 240.934" style="enable-background:new 0 0 240.934 240.934;" xml:space="preserve">
<g>
	<path style="fill:#575756;" d="M232.158,107.583c-0.865-1.049-1.776-2.038-2.732-2.967c2.329-1.807,4.006-4.376,4.745-7.383
		c1.163-2.644,1.463-5.233,1.677-7.086l0.064-0.553c0.069-0.504,0.157-1.019,0.244-1.541c0.609-3.645,1.531-9.151-1.307-14.663
		l-0.051-0.097c-1.271-2.405-3.354-4.347-5.905-5.566c-2.157-1.477-4.788-2.285-7.592-2.285c-0.435,0-0.871,0.021-1.306,0.061
		c-1.998-0.368-4.291-0.564-7.004-0.604c-3.241-0.061-6.498-0.165-9.764-0.269c-5.195-0.165-10.568-0.336-15.932-0.336
		c-4.208,0-7.988,0.105-11.537,0.321c-0.511-0.011-1.022-0.017-1.533-0.017c-3.709,0-6.74,0.326-9.333,1.015
		c-2.835,0.13-5.537,1.146-7.768,2.914c-0.315,0.23-0.62,0.48-0.911,0.749c-1.485,1.353-2.656,3.015-3.48,4.942l-0.046,0.108
		c-2.778,6.712-4.535,13.963-5.955,20.835c-1.655-1.18-3.572-1.988-5.648-2.357c0.003-0.027,0.005-0.051,0.009-0.078
		c0.27-2.28,0.642-5.403-0.072-8.694c-1.173-5.405-4.909-9.459-10.308-11.139c-2.722-0.83-5.329-0.95-7.425-1.047
		c-0.526-0.024-1.044-0.046-1.557-0.088l-8.326-0.683c-0.402-0.036-0.8-0.054-1.193-0.054c-7.261,0-13.334,5.947-13.827,13.539
		l-0.01,0.192c-0.093,2.034-0.102,4.632,0.457,7.46c-1.86,0.715-3.591,1.838-5.074,3.354c-0.667,0.682-1.259,1.42-1.778,2.198
		c-0.063-0.055-0.12-0.116-0.183-0.171c-5.515-4.759-12.271-7.273-19.536-7.273c-3.105,0-6.257,0.46-9.367,1.341
		c0.019-5.294-0.22-10.711-0.718-16.051c-0.501-5.493-4.494-10.054-9.892-11.48c-0.063-0.021-0.125-0.04-0.188-0.06
		c-2.805-0.943-5.815-1.402-9.189-1.402c-2.756,0-5.384,0.306-7.703,0.576c-0.761,0.089-1.517,0.178-2.27,0.253l-0.181,0.02
		c-2.95,0.342-5.737,0.664-8.402,0.709c-0.361-0.008-1.131-0.112-1.755-0.196c-1.257-0.17-2.82-0.382-4.533-0.382
		c-0.845,0-1.672,0.053-2.459,0.155c-7.098,0.892-12.312,5.779-13.95,13.084c-0.955,4.255-0.625,8.69-0.36,12.255
		c0.092,1.24,0.179,2.412,0.177,3.166c-0.081,5.656,3.295,10.524,8.309,12.671c0.001,0.009,0.001,0.017,0.002,0.025
		c0.272,3.814,0.527,7.417,0.685,11.111c0.289,5.786,0.481,11.433,0.573,16.82c-5.865,1.53-10.163,6.672-10.433,12.987
		c-0.222,5.528-0.402,11.057-0.581,16.544l-0.016,0.499c-0.14,3.649,1.259,7.284,3.841,9.981c2.632,2.748,6.283,4.324,10.02,4.324
		l0.374-0.006c3.099-0.092,6.319-0.14,9.575-0.14c2.694,0,5.496,0.032,8.36,0.097c1.337,0.025,2.732,0.102,4.21,0.183
		c2.005,0.109,4.077,0.224,6.25,0.224c0.827,0,1.621-0.018,2.39-0.051c1.392,0.452,2.861,0.688,4.354,0.688c0.001,0,0.001,0,0.002,0
		c2.478,0,4.873-0.659,6.925-1.867c1.631,0.608,3.411,0.938,5.286,0.938c0.753,0,1.523-0.053,2.378-0.17
		c3.028-0.442,6.134-0.657,9.495-0.657c6.268,0,12.625,0.755,19.129,1.596c0.611,0.079,1.229,0.119,1.836,0.119
		c3.776,0,7.157-1.541,9.602-4.091c0.939,0.369,1.923,0.672,2.958,0.89c7.952,1.645,16.105,2.069,23.99,2.48
		c3.844,0.2,7.475,0.389,11.092,0.719c0.36,0.029,0.718,0.044,1.073,0.044c6.437,0,12.106-4.872,13.555-11.145
		c7.923,6.059,18.935,9.521,31.767,9.521c17.132,0,33.285-6.447,42.177-16.85C243.773,144.346,244.405,122.384,232.158,107.583z"/>
	<path style="fill:#FF931E;" d="M175.633,125.316c-1.008,0.229-1.971,0.321-2.979,0.367c-0.55,0.092-1.1,0.137-1.696,0.046
		c-0.825-0.092-1.467-0.458-1.971-0.917c-2.704-0.458-5.409-1.146-8.021-1.833c-2.567-0.642-5.225-1.146-6.188-3.896
		c-0.092-0.229-0.046-0.504,0-0.779c-2.75-3.483-0.275-10.817,0.458-14.621c1.65-8.479,3.392-17.555,6.692-25.53
		c0.275-0.642,0.642-1.146,1.054-1.512c0.046-0.046,0.046-0.046,0.092-0.046c0.917-0.871,2.108-1.146,3.163-0.917
		c2.567-1.008,6.188-1.146,9.717-1.054c12.238-0.779,24.659,0.046,36.851,0.275c3.117,0.046,5.363,0.321,6.967,0.825
		c1.283-0.504,3.117-0.367,3.988,0.733c0.917,0.229,1.787,0.733,2.2,1.513c1.604,3.117,0.504,6.921,0.046,10.267
		c-0.229,1.788-0.367,4.171-1.421,5.775c-0.092,1.558-0.962,3.025-2.796,3.346c-6.829,1.329-13.888,0.458-20.809,0.412
		c-5.454-0.046-10.909-0.046-16.363-0.092c-0.779,3.758-1.971,7.425-3.438,11c-0.046,0.046-0.046,0.092-0.046,0.092
		c14.346-6.05,32.68-7.7,43.314,5.179c9.671,11.688,8.159,28.097-1.421,39.372c-16.455,19.251-63.985,18.563-69.119-8.113
		c-0.504-1.65-0.825-3.254-0.963-4.629c-0.183-1.879-0.092-6.234,1.329-8.754c-0.733-0.871-0.917-2.063,0.504-3.025
		c2.154-1.513,5.454-0.963,7.975-1.054c2.75-0.092,5.958-1.054,8.021,1.283c0.321,0.367,0.55,0.871,0.688,1.375
		c0.504,0.138,0.917,0.504,1.192,1.1c1.971,4.4,3.254,8.663,8.434,9.992c4.538,1.146,8.479,0.137,10.084-4.492
		c1.054-3.071,2.292-9.121-0.092-11.871c-3.346-3.758-8.8-1.742-12.421-0.183c-0.871,0.412-1.833,0.458-2.75,0.275
		C175.816,125.224,175.724,125.316,175.633,125.316z"/>
	<path style="fill:#FFFFFF;" d="M139.682,148.55c8.113-0.046,7.425,6.646,7.379,15.538c-0.046,2.108-1.925,4.354-4.171,4.171
		c-11.046-1.008-23.009-0.779-33.872-3.025c-7.196-1.513-5.684-9.488-5.5-15.309c0.046-1.925,1.742-3.988,3.85-3.85
		c1.146,0.092,2.2,0.183,3.3,0.321c0.092-2.979,0.458-5.958,0.642-8.892c0.229-4.125,0.504-8.296,0.871-12.421
		c-2.338-0.504-4.675-1.054-6.967-1.833c-1.421-0.458-2.063-1.65-1.971-2.842c-1.237-0.229-2.338-0.963-2.612-2.338
		c-0.825-4.079-0.917-8.204-1.1-12.375c-0.046-2.108,2.108-4.629,4.354-4.354c11.459,1.375,22.78,1.787,34.33,1.238
		c4.583-0.229,5.546,5.179,3.071,7.838c0.275,7.471-0.137,14.942-0.596,22.413C140.37,137.916,140.415,143.371,139.682,148.55z"/>
	<path style="fill:#FFFFFF;" d="M127.799,82.461c4.858,1.512,3.575,6.646,3.208,10.496c-0.183,1.879-1.604,3.988-3.804,3.804
		c-4.95-0.458-10.084-1.1-14.988-2.063c-0.596-0.092-0.962-0.412-1.192-0.825c-0.963-0.413-1.788-1.238-2.154-2.613
		c-0.55-1.971-0.596-4.033-0.504-6.05c0.138-2.108,1.833-4.4,4.171-4.171c2.796,0.229,5.592,0.458,8.388,0.688
		C123.123,81.911,125.69,81.819,127.799,82.461z"/>
	<path style="fill:#FFFFFF;" d="M95.531,146.97c2.063,0.137,4.171,1.742,3.988,3.988c-0.137,2.521-0.229,5.088-0.412,7.609
		c-0.138,1.971-0.229,4.217-1.146,6.05c-0.229,2.063-1.604,3.896-4.079,3.575c-10.634-1.375-20.671-2.475-31.351-0.917
		c-3.025,0.413-5.317-1.146-5.592-4.308c-0.412-4.583-1.467-9.992-0.183-14.53c0.504-1.925,2.246-3.117,4.217-3.208
		c0.642-0.046,1.283,0,1.925,0.046c-0.229-2.933-0.275-5.867-0.504-8.8c-0.321-3.575-1.283-15.767-7.608-10.221
		c-6.142,5.409-7.929,14.621-8.755,22.551c0.688,0.046,1.421,0.046,2.108,0.092c2.108,0.092,4.354,1.833,4.171,4.171
		c-0.321,3.988-0.092,7.929,0.275,11.917c0.275,3.3-3.621,4.125-5.684,2.429c-4.813,0.55-9.717-0.092-14.53-0.183
		c-6.142-0.137-12.284-0.137-18.425,0.046c-2.108,0.046-4.033-1.833-3.942-3.942c0.183-5.638,0.367-11.321,0.596-17.005
		c0.092-2.154,1.742-3.758,3.896-3.85c2.154-0.137,4.217-0.046,6.233,0.137c0.138-1.879,0.367-3.667,0.367-4.95
		c-0.046-7.334-0.275-14.713-0.642-22.046c-0.275-6.463-0.871-12.971-1.238-19.48c-1.283,0.137-2.658,0.137-4.033,0
		c-2.017-0.183-3.758-1.558-3.713-3.713c0.046-5.959-2.842-17.692,5.409-18.701c2.383-0.321,5.088,0.504,7.517,0.504
		c3.208-0.046,6.371-0.412,9.534-0.779c5.042-0.504,10.313-1.558,15.217,0.183c0.092,0,0.138,0.092,0.229,0.092
		c1.375,0.229,2.704,1.283,2.842,2.796c0.963,10.313,1.008,22.23-0.55,33.047c9.029-8.754,23.238-13.338,33.597-4.4
		c11,9.488,11.092,27.317,7.104,41.664C93.423,146.878,94.477,146.878,95.531,146.97z"/>
</g>
<g>
</g>
<g>
</g>
<g>
</g>
<g>
</g>
<g>
</g>
<g>
</g>
<g>
</g>
<g>
</g>
<g>
</g>
<g>
</g>
<g>
</g>
<g>
</g>
<g>
</g>
<g>
</g>
<g>
</g>
</svg>
